<?xml version="1.0" encoding="UTF-8"?>
<svg id="Capa_1" xmlns="http://www.w3.org/2000/svg" version="1.1" viewBox="0 0 32.99 30">
  <!-- Generator: Adobe Illustrator 29.5.0, SVG Export Plug-In . SVG Version: 2.1.0 Build 137)  -->
  <path d="M23.33,0C20.32,0,17.94,2.16,16.49,3.95,15.05,2.16,12.67,0,9.66,0,4.86,0,0,3.62,0,10.54c0,3.8,2.66,8.2,7.9,13.11,3.73,3.48,7.4,5.94,7.55,6.04.03.02.07.03.1.05.09.05.17.09.27.12.06.03.13.06.19.07.14.04.28.06.42.06.02,0,.04,0,.05,0,0,0,0,0,0,0s0,0,0,0c.02,0,.04,0,.05,0,.14,0,.28-.02.42-.06.07-.02.13-.05.19-.07.09-.04.18-.07.26-.12.03-.02.07-.03.1-.05.15-.1,3.83-2.56,7.55-6.04,5.25-4.9,7.91-9.31,7.91-13.11C32.99,3.62,28.13,0,23.33,0ZM16.49,25.88c-4.34-3.09-12.77-10.17-12.77-15.34,0-4.71,2.98-6.81,5.93-6.81,2.24,0,4.5,3.16,5.12,4.27.37.68,1.11,1.03,1.83.95.64-.01,1.27-.35,1.6-.95.62-1.11,2.88-4.28,5.12-4.28,2.95,0,5.93,2.11,5.93,6.81,0,5.17-8.43,12.25-12.77,15.34Z"/>
</svg>