<?xml version="1.0" encoding="UTF-8"?>
<svg id="Layer_1" xmlns="http://www.w3.org/2000/svg" version="1.1" viewBox="0 0 30 30">
  <!-- Generator: Adobe Illustrator 29.5.1, SVG Export Plug-In . SVG Version: 2.1.0 Build 141)  -->
  <path d="M29.99,1.13s0-.04,0-.05c0-.02,0-.04-.01-.07,0-.02,0-.04-.02-.06,0-.02,0-.04-.01-.06,0-.02-.01-.04-.02-.06,0-.02-.01-.04-.02-.06,0-.02-.02-.04-.03-.05,0-.02-.02-.04-.03-.06,0-.02-.02-.03-.03-.05-.01-.02-.02-.04-.03-.05-.01-.02-.03-.04-.04-.05-.01-.01-.02-.03-.03-.04-.03-.03-.05-.06-.08-.09,0,0,0,0,0,0s0,0,0,0c-.03-.03-.06-.06-.09-.08-.01-.01-.03-.02-.04-.03-.02-.01-.04-.03-.05-.04-.02-.01-.04-.02-.05-.03-.02-.01-.03-.02-.05-.03-.02,0-.04-.02-.06-.03-.02,0-.04-.02-.05-.03-.02,0-.04-.01-.06-.02-.02,0-.04-.01-.06-.02-.02,0-.04,0-.06-.01-.02,0-.04-.01-.06-.02-.02,0-.04,0-.07-.01-.02,0-.04,0-.05,0-.04,0-.08,0-.12,0h-8.75c-.69,0-1.25.56-1.25,1.25s.56,1.25,1.25,1.25h5.73l-9.12,9.12c-.49.49-.49,1.28,0,1.77s1.28.49,1.77,0l9.12-9.12v5.73c0,.69.56,1.25,1.25,1.25s1.25-.56,1.25-1.25V1.25s0-.08,0-.12Z"/>
  <path d="M11.62,16.62L2.5,25.73v-5.73c0-.69-.56-1.25-1.25-1.25s-1.25.56-1.25,1.25v8.75s0,.08,0,.12c0,.02,0,.04,0,.05,0,.02,0,.04.01.07,0,.02,0,.04.02.06,0,.02,0,.04.01.06,0,.02.01.04.02.06,0,.02.01.04.02.06s.02.04.03.05c0,.02.02.04.03.06,0,.02.02.03.03.05.01.02.02.04.03.05.01.02.03.04.04.05.01.01.02.03.03.04.03.03.05.06.08.09,0,0,0,0,0,0,0,0,0,0,0,0,.03.03.06.06.09.08.01.01.03.02.04.03.02.01.04.03.05.04.02.01.04.02.05.03.02.01.03.02.05.03.02,0,.04.02.06.03.02,0,.04.02.05.03.02,0,.04.01.06.02.02,0,.04.01.06.02.02,0,.04,0,.06.01.02,0,.04.01.06.02.02,0,.04,0,.07.01.02,0,.04,0,.05,0,.04,0,.08,0,.12,0h8.75c.69,0,1.25-.56,1.25-1.25s-.56-1.25-1.25-1.25h-5.73l9.12-9.12c.49-.49.49-1.28,0-1.77s-1.28-.49-1.77,0Z"/>
</svg>