<?xml version="1.0" encoding="UTF-8"?>
<svg id="DP-rest-menu-logo" xmlns="http://www.w3.org/2000/svg" version="1.1" viewBox="0 0 30.1 40">
  <!-- Generator: Adobe Illustrator 29.1.0, SVG Export Plug-In . SVG Version: 2.1.0 Build 142)  -->
  <defs>
    <style>
      .st0 {
        fill: #343a40;
      }
    </style>
  </defs>
  <g id="icono">
    <g>
      <path class="st0" d="M27.2,7.4H7.4c-.4,0-.7.3-.7.7s.3.7.7.7h19.8c.4,0,.7.3.7.7v27.6c0,.4-.3.7-.7.7H3c-.4,0-.7-.3-.7-.7V8.9c0-1,.6-1.8,1.6-2L23.4,2.3c.3,0,.7.1.8.5v2.8c0,.4.3.7.7.7s.6-.3.7-.7v-2.6c0-1.2-1-2.1-2.1-2.1s-.3,0-.4,0L3.6,5.5c-1.6.3-2.6,1.7-2.6,3.3v28.1c0,1.1.9,2,2,2h24.2c1.1,0,2-.9,2-2V9.4c0-1.1-.9-2-2-2Z"/>
      <path class="st0" d="M27.2,40H3C1.3,40,0,38.7,0,37V8.9C0,6.8,1.4,5,3.4,4.6L22.4.2C22.7,0,23.1,0,23.6,0,25.2,0,26.6,1.4,26.6,3v2.7c0,.2,0,.4-.2.6h.8c1.6,0,3,1.3,3,3v27.6c0,1.6-1.3,3-3,3ZM3.2,36.8h23.7V9.7H7.4c-.9,0-1.6-.7-1.6-1.6s0-.4.1-.6l-1.7.4c-.5.1-.9.5-.9,1.1v27.9ZM10.2,6.4h13.3c-.1-.2-.2-.5-.2-.7v-2.3l-13.2,3.1ZM23.7,3.3h0s0,0,0,0Z"/>
    </g>
    <g>
      <path class="st0" d="M6.8,11.5c-.4,0-.7.3-.7.7v6c0,.3,0,.6.3.9l1.6,2.5c.2.3.3.6.2.9l-.9,9.7c-.2,3.8,5.5,3.8,5.3,0l-.9-9.7c0-.3,0-.6.2-.9l1.6-2.5c.2-.3.3-.6.3-.9v-6c0-.4-.3-.7-.7-.7s-.7.3-.7.7v6s0,.1,0,.2l-1.6,2.5c-.3.5-.5,1.2-.4,1.8l.9,9.7c0,.7-.5,1.3-1.2,1.4-.7,0-1.3-.5-1.4-1.2v-.2l.9-9.7c0-.6,0-1.3-.4-1.8l-1.6-2.5s0-.1,0-.2v-6c0-.4-.3-.7-.7-.7h0Z"/>
      <path class="st0" d="M10,35.1c-.5,0-1.1-.1-1.5-.4-.9-.5-1.3-1.4-1.3-2.6l.9-9.7c0-.3,0-.6-.2-.8l-1.6-2.5c-.2-.3-.3-.6-.3-1v-6c0-.4.3-.8.8-.8h0s.2,0,.2,0h0c.4,0,.6.4.6.8v6s0,0,0,.1l1.6,2.5c.3.5.5,1.2.5,1.8l-.9,9.7v.2c0,.6.6,1.1,1.3,1.1.7,0,1.1-.6,1.1-1.3l-.9-9.7c0-.7.1-1.3.5-1.9l1.6-2.5s0,0,0-.1v-6c0-.5.4-.8.8-.8s.8.4.8.8v6c0,.4,0,.7-.3,1l-1.6,2.5c-.1.2-.2.5-.2.8l.9,9.7c0,1.2-.4,2.1-1.3,2.6-.4.3-1,.4-1.5.4ZM6.8,11.6c-.3,0-.6.3-.6.6v6c0,.3,0,.6.2.8l1.6,2.5c.2.3.3.7.2,1l-.9,9.7c0,1,.4,1.9,1.2,2.4.8.5,1.9.5,2.8,0,.8-.5,1.2-1.3,1.2-2.4l-.9-9.7c0-.4,0-.7.2-1l1.6-2.5c.2-.2.2-.5.2-.8v-6c0-.3-.3-.6-.6-.6s-.6.3-.6.6v6c0,0,0,.2,0,.3l-1.6,2.5c-.3.5-.5,1.1-.4,1.7l.9,9.7c0,.8-.5,1.5-1.3,1.5h0c-.8,0-1.5-.6-1.5-1.3v-.2l.9-9.7c0-.6-.1-1.2-.4-1.7l-1.6-2.5c0,0,0-.2,0-.2v-6c0-.3-.2-.5-.4-.6h0s-.1,0-.1,0Z"/>
    </g>
    <g>
      <path class="st0" d="M9.6,17.2v-5c0-.4-.3-.7-.7-.7s-.6.3-.7.7v5c0,.4.3.7.7.7s.6-.3.7-.7Z"/>
      <path class="st0" d="M8.9,18c-.5,0-.8-.4-.8-.8v-5c0-.5.4-.8.8-.8s.8.4.8.8v5c0,.5-.4.8-.8.8ZM8.9,11.6c-.3,0-.5.2-.6.6v5c0,.3.3.6.6.6s.5-.2.6-.6v-5c0-.3-.3-.6-.6-.6Z"/>
    </g>
    <g>
      <path class="st0" d="M11.8,17.2v-5c0-.4-.3-.7-.7-.7s-.6.3-.7.7v5c0,.4.3.7.7.7s.6-.3.7-.7Z"/>
      <path class="st0" d="M11.1,18c-.5,0-.8-.4-.8-.8v-5c0-.5.4-.8.8-.8s.8.4.8.8v5c0,.5-.4.8-.8.8ZM11.1,11.6c-.3,0-.5.2-.6.6v5c0,.3.3.6.6.6s.5-.2.6-.6v-5c0-.3-.3-.6-.6-.6Z"/>
    </g>
    <g>
      <path class="st0" d="M17.8,13.8c.6-1,1.9-1.4,3-.9.3.2.7,0,.9-.3.2-.3,0-.7-.3-.9-1.7-.9-3.8-.2-4.8,1.5-1.6,2.9-1.1,6.4,1.3,8.6l-.9,9.4c-.1,1.2.3,2.4,1.2,3.2,2,1.9,4.4-.6,4.3-2.9v-.4l-.9-9.5c2.1-1.9,2.8-4.9,1.8-7.6-.1-.3-.5-.5-.9-.4-.3.1-.5.5-.4.9.8,2.1.2,4.5-1.4,6.1-.3.3-.5.7-.5,1.2l.9,9.4v.3c0,1-.9,2.8-2,1.9-.6-.6-.9-1.3-.8-2.1l.9-9.4c0-.4-.1-.9-.5-1.2-1.9-1.8-2.3-4.7-1-6.9h0Z"/>
      <path class="st0" d="M19.8,35.2c-.6,0-1.1-.2-1.6-.7-.9-.9-1.3-2.1-1.2-3.3l.9-9.4c-2.4-2.2-3-5.8-1.3-8.8,1-1.7,3.2-2.4,5-1.5.3.2.6.6.4,1.1-.2.3-.6.6-1.1.4-1-.5-2.3-.1-2.9.9h0c-1.3,2.2-.8,5,1,6.8.3.3.5.7.5,1.3l-.9,9.4c0,.7.2,1.5.7,2,.3.2.6.3.8.1.5-.3,1-1.2,1-1.9v-.3l-.9-9.4c0-.5.1-1,.5-1.3,1.6-1.5,2.2-3.8,1.4-5.9,0-.2,0-.4,0-.6,0-.2.2-.3.4-.4.4-.2.9,0,1,.5,1,2.7.3,5.7-1.8,7.7l.9,9.4v.4c0,1.4-.8,2.9-2,3.4-.3.1-.6.2-.9.2ZM19.8,11.5c-1.2,0-2.4.6-3.1,1.8-1.6,2.8-1.1,6.3,1.3,8.5h0s0,0,0,0l-.9,9.4c-.1,1.2.3,2.3,1.1,3.1.9.8,1.7.7,2.3.4,1.1-.5,1.9-1.9,1.8-3.2v-.4l-.9-9.5h0c2-1.9,2.7-4.9,1.8-7.5-.1-.3-.4-.4-.7-.3-.1,0-.2.2-.3.3,0,.1,0,.3,0,.4.8,2.2.2,4.6-1.5,6.2-.3.3-.5.7-.4,1.1l.9,9.4v.3c0,.8-.4,1.8-1.1,2.1-.2.1-.6.2-1.1-.2-.6-.6-.9-1.4-.8-2.2l.9-9.4c0-.3,0-.8-.4-1.1-1.9-1.8-2.4-4.8-1.1-7.1h0c.6-1.1,2-1.5,3.2-1,.3.1.6,0,.8-.3.1-.3,0-.6-.3-.7-.5-.2-1-.4-1.6-.4Z"/>
    </g>
  </g>
</svg>