<?xml version="1.0" encoding="UTF-8"?>
<svg id="DP-rest-menu-logo" xmlns="http://www.w3.org/2000/svg" version="1.1" viewBox="0 0 30.1 40">
  <!-- Generator: Adobe Illustrator 29.1.0, SVG Export Plug-In . SVG Version: 2.1.0 Build 142)  -->
  <defs>
    <style>
      .st0 {
        fill: #343a40;
      }
    </style>
  </defs>
  <path class="st0" d="M11.9.2c-.8,0-1.5.7-1.5,1.5v9.9s0,0,0,0l-2.6,4.1c-.6.9-.9,2-.8,3.2l1.5,16c0,.5-.1,1-.4,1.3s-.7.6-1.2.6c-1.1,0-1.9-.7-1.9-1.6v-.3s1.5-16,1.5-16c0-1.2-.2-2.3-.8-3.1l-2.6-4.1s0-.1,0-.1V1.6c0-.7-.4-1.3-1.1-1.4h0c0,0-.4,0-.4,0h0C.6.2,0,.9,0,1.7v9.9C0,12.2.2,12.8.5,13.2l2.6,4.1c.2.4.4.8.3,1.3l-1.5,16c0,2,.7,3.5,2.2,4.4.8.5,1.7.7,2.6.7s1.8-.2,2.6-.7c1.5-.9,2.3-2.5,2.2-4.4l-1.5-16c0-.6.1-1,.3-1.3l2.6-4.1c.3-.5.5-1.1.5-1.7V1.7c0-.8-.7-1.5-1.5-1.5Z"/>
  <path class="st0" d="M4.9,11.5c.8,0,1.4-.6,1.5-1.5V1.7c0-.8-.7-1.5-1.5-1.5s-1.4.6-1.5,1.5v8.3c0,.8.7,1.5,1.5,1.5Z"/>
  <path class="st0" d="M8.5,11.5c.8,0,1.4-.6,1.5-1.5V1.7c0-.8-.7-1.5-1.5-1.5s-1.4.6-1.5,1.5v8.3c0,.8.7,1.5,1.5,1.5Z"/>
  <path class="st0" d="M26.4,17.7c3.4-3.3,4.6-8.3,3-12.8-.1-.4-.4-.7-.8-.8-.4-.2-.8-.2-1.1,0-.8.3-1.1,1.1-.9,1.9,1.2,3.4.3,7.1-2.3,9.6-.7.6-1,1.4-.9,2.3l1.4,15.5v.4c0,1.1-.7,2.6-1.5,3-.4.2-.8.1-1.2-.2-.9-.9-1.3-2.1-1.2-3.2l1.4-15.6c0-.9-.3-1.7-.9-2.2-3-2.8-3.7-7.4-1.6-11,.9-1.5,2.9-2.1,4.5-1.4.8.4,1.6,0,2-.7.4-.8,0-1.6-.7-2-3-1.5-6.7-.4-8.5,2.6-2.7,4.9-1.8,10.9,2.2,14.6l-1.4,15.4c-.2,2.1.5,4.1,2,5.6.9.8,1.8,1.2,2.8,1.2s1.1-.1,1.6-.4c2-.9,3.5-3.4,3.4-5.8v-.7s-1.4-15.5-1.4-15.5Z"/>
</svg>