<?xml version="1.0" encoding="UTF-8"?>
<svg id="Capa_1" xmlns="http://www.w3.org/2000/svg" version="1.1" viewBox="0 0 40 40">
  <!-- Generator: Adobe Illustrator 29.1.0, SVG Export Plug-In . SVG Version: 2.1.0 Build 142)  -->
  <defs>
    <style>
      .st0 {
        fill: #343a40;
      }
    </style>
  </defs>
  <path class="st0" d="M20,0c-1.6,0-2.9.5-3.8,1.5L.6,16.6c-.8.8-.8,2,0,2.8.8.8,2,.8,2.8,0h0l15.5-15c.6-.6,1.6-.6,2.2,0l15.5,15c.8.8,2.1.7,2.8,0,.8-.8.7-2.1,0-2.8L23.8,1.5C22.8.5,21.3,0,20,0ZM6.1,22c-1.1,0-2,.9-2,2v10c0,3.3,2.7,6,6,6h20c3.3,0,6-2.7,6-6v-10c0-1.1-.9-2-2-2s-2,.9-2,2v10c0,1.1-.9,2-2,2H10.1c-1.1,0-2-.9-2-2v-10c0-1.1-.9-2-2-2h0Z"/>
</svg>