<?xml version="1.0" encoding="UTF-8"?>
<svg id="DP-rest-menu-logo" xmlns="http://www.w3.org/2000/svg" version="1.1" viewBox="0 0 30.1 40">
  <!-- Generator: Adobe Illustrator 29.1.0, SVG Export Plug-In . SVG Version: 2.1.0 Build 142)  -->
  <defs>
    <style>
      .st0 {
        fill: #343a40;
      }
    </style>
  </defs>
  <g>
    <path class="st0" d="M1.5.6C.9.6.4,1.1.4,1.7v9.8c0,.5.1,1.1.4,1.5l2.6,4.1c.3.4.4,1,.4,1.5l-1.5,16c-.3,6.3,9.1,6.4,8.8,0l-1.5-16c0-.5,0-1.1.4-1.5l2.6-4.1c.3-.4.4-.9.4-1.5V1.7c0-.6-.5-1.1-1.1-1.1s-1.1.5-1.1,1.1v9.8s0,.2,0,.3l-2.6,4.1c-.6.9-.8,1.9-.7,2.9l1.5,16c0,1.2-.8,2.2-2,2.3-1.2,0-2.2-.8-2.3-2v-.4l1.5-16c0-1-.1-2.1-.7-2.9l-2.6-4.1s0-.2,0-.3V1.6c0-.6-.5-1.1-1.1-1.1h0Z"/>
    <path class="st0" d="M11.8.2c-.9,0-1.5.7-1.5,1.5v9.9s-2.6,4.1-2.6,4.1c-.6.9-.9,2-.8,3.2l1.5,16c0,1-.6,1.8-1.6,1.9-1.1,0-1.8-.7-1.9-1.6v-.3s1.5-16,1.5-16c0-1.2-.2-2.3-.8-3.2l-2.6-4.1s0-.1,0-.2V1.6c0-.7-.5-1.3-1.1-1.5,0,0,0,0,0,0,0,0-.1,0-.2,0,0,0,0,0-.1,0h0C.6.2,0,.9,0,1.7v9.8c0,.6.2,1.2.5,1.7l2.6,4.1c.2.4.4.8.3,1.3l-1.5,16c0,2,.7,3.5,2.2,4.4.8.5,1.7.7,2.6.7s1.8-.2,2.6-.7c1.5-.9,2.3-2.5,2.2-4.5l-1.5-15.9c0-.6,0-1,.3-1.3l2.6-4.1c.3-.5.5-1.1.5-1.7V1.7c0-.9-.7-1.5-1.5-1.5ZM12.6,11.6c0,.5-.1.9-.4,1.3l-2.6,4.1c-.3.4-.4,1-.4,1.7l1.5,16c0,1.7-.6,3-1.8,3.8-1.3.8-3.1.8-4.4,0-1.3-.8-1.9-2.1-1.8-3.7l1.5-16c0-.6,0-1.2-.4-1.8l-2.6-4.1c-.2-.3-.4-.8-.4-1.3V1.7c0-.4.3-.8.8-.8h.2c.3,0,.5.3.5.7v9.8s0,.1.1.5l2.6,4.1c.5.7.7,1.7.7,2.7l-1.5,16v.4c0,1.4,1.2,2.4,2.7,2.4h0c1.4,0,2.4-1.3,2.4-2.7l-1.5-16c0-1,.2-2,.7-2.7l2.6-4.1c.2-.2.2-.4.2-.6V1.7c0-.4.3-.8.8-.8s.8.3.8.8v9.8Z"/>
  </g>
  <g>
    <path class="st0" d="M6.1,10V1.7c0-.6-.5-1.1-1.1-1.1s-1.1.5-1.1,1.1v8.3c0,.6.5,1.1,1.1,1.1s1.1-.5,1.1-1.1Z"/>
    <path class="st0" d="M4.9,11.5c-.9,0-1.5-.7-1.5-1.5V1.7c0-.9.7-1.5,1.5-1.5s1.5.7,1.5,1.5v8.3c0,.9-.7,1.5-1.5,1.5ZM4.9,1c-.5,0-.7.4-.8.8v8.2c0,.4.3.8.8.8s.7-.4.8-.8V1.7c0-.4-.3-.8-.8-.8Z"/>
  </g>
  <g>
    <path class="st0" d="M9.6,10V1.7c0-.6-.5-1.1-1.1-1.1s-1.1.5-1.1,1.1v8.3c0,.6.5,1.1,1.1,1.1s1.1-.5,1.1-1.1Z"/>
    <path class="st0" d="M8.5,11.5c-.9,0-1.5-.7-1.5-1.5V1.7c0-.9.7-1.5,1.5-1.5s1.5.7,1.5,1.5v8.3c0,.9-.7,1.5-1.5,1.5ZM8.5,1c-.5,0-.7.4-.8.8v8.2c0,.4.3.8.8.8s.7-.4.8-.8V1.7c0-.4-.3-.8-.8-.8Z"/>
  </g>
  <g>
    <path class="st0" d="M19.6,4.5c1-1.7,3.2-2.4,5-1.5.6.3,1.2,0,1.5-.5.3-.6,0-1.2-.5-1.5-2.9-1.4-6.4-.4-8,2.4-2.6,4.7-1.8,10.6,2.2,14.3l-1.4,15.6c-.2,2,.5,3.9,1.9,5.3,3.4,3.1,7.3-1,7.1-4.7v-.6l-1.4-15.6c3.4-3.2,4.6-8.1,3-12.5-.2-.6-.9-.9-1.4-.6-.6.2-.9.9-.6,1.4,1.3,3.5.4,7.4-2.4,10-.6.5-.9,1.2-.8,2l1.4,15.6v.4c0,1.6-1.4,4.6-3.3,3.1-.9-.9-1.4-2.2-1.3-3.5l1.4-15.6c0-.7-.2-1.4-.8-1.9-3.1-2.9-3.9-7.7-1.7-11.4h0Z"/>
    <path class="st0" d="M22.9,40c-1,0-1.9-.4-2.8-1.2-1.5-1.5-2.3-3.5-2-5.6l1.4-15.4c-4-3.8-4.9-9.7-2.1-14.6C19,.3,22.8-.8,25.8.7c.6.4,1.1,1.2.7,2-.4.6-1.2,1.1-2,.7-1.6-.8-3.6-.2-4.5,1.4-2,3.5-1.4,8.2,1.6,10.9.6.5.9,1.3.9,2.2l-1.4,15.6c-.1,1.1.3,2.3,1.2,3.2.4.3.8.4,1.2.2.8-.4,1.5-1.9,1.5-3v-.4l-1.4-15.5c0-.9.3-1.7.9-2.3,2.6-2.5,3.5-6.2,2.2-9.6-.1-.4-.1-.8,0-1.1.2-.4.5-.6.8-.8.4-.1.8-.1,1.1,0,.4.2.6.5.8.8,1.6,4.5.5,9.5-3,12.8l1.4,15.4v.7c0,2.4-1.4,4.9-3.4,5.8-.5.2-1.1.4-1.6.4ZM23,.8c-2,0-3.9,1-5,2.9-2.6,4.6-1.7,10.3,2.1,13.8h.1c0,.1-1.4,15.9-1.4,15.9-.2,1.9.5,3.7,1.8,5,1.4,1.3,2.7,1.1,3.6.7,1.7-.8,3-3,2.9-5.1v-.7l-1.4-15.8h.1c3.3-3.2,4.4-8,2.9-12.2,0-.2-.2-.3-.4-.4-.2,0-.4,0-.6,0-.2,0-.3.2-.4.4,0,.2,0,.4,0,.6,1.3,3.6.4,7.7-2.4,10.4-.5.4-.7,1-.7,1.7l1.4,16c0,1.1-.7,3.1-1.9,3.7-.5.2-1.2.3-2-.3-1.1-1.1-1.6-2.5-1.4-3.8l1.4-15.5c0-.5-.1-1.1-.7-1.6-3.3-3-4-8-1.8-11.9h0c1.1-1.9,3.5-2.6,5.5-1.7.4.2.8,0,1-.3.2-.4,0-.8-.4-1-.8-.4-1.6-.6-2.5-.6Z"/>
  </g>
</svg>