<?xml version="1.0" encoding="UTF-8"?>
<svg id="Capa_1" xmlns="http://www.w3.org/2000/svg" version="1.1" viewBox="0 0 30.6 40">
  <!-- Generator: Adobe Illustrator 29.1.0, SVG Export Plug-In . SVG Version: 2.1.0 Build 142)  -->
  <defs>
    <style>
      .st0 {
        fill: #343a40;
      }
    </style>
  </defs>
  <path class="st0" d="M29.1,2.4h-5.1v-.8c0-.8-.7-1.5-1.5-1.5s-1.5.6-1.5,1.5v.8h-4.2v-.8c0-.8-.7-1.5-1.5-1.5s-1.5.6-1.5,1.5v.8h-4.1v-.9c0-.8-.6-1.5-1.5-1.5s-1.6.7-1.5,1.6v.8H1.5c-.8,0-1.5.7-1.5,1.6v34.5c0,.9.7,1.5,1.5,1.5h27.6c.8,0,1.5-.7,1.5-1.6V3.9c0-.8-.6-1.5-1.5-1.5ZM27.5,36.9H3.1V5.6h3.6v.5c0,.8.6,1.5,1.5,1.5h0c.8,0,1.5-.8,1.5-1.7v-.3h4.1v.5c0,.8.6,1.5,1.5,1.5s1.5-.7,1.5-1.6v-.4h4.2v.5c0,.8.6,1.5,1.5,1.5s1.5-.7,1.5-1.6v-.4h3.5v31.3Z"/>
  <path class="st0" d="M22.6,24.5h-14.4c-.8,0-1.5.7-1.5,1.5s.6,1.5,1.5,1.5h14.3c.9,0,1.6-.7,1.6-1.5s-.6-1.5-1.5-1.5Z"/>
  <path class="st0" d="M22.6,15.1h-14.4c-.8,0-1.5.7-1.5,1.5s.6,1.5,1.5,1.5h14.3c.9,0,1.6-.7,1.6-1.5s-.6-1.5-1.5-1.5Z"/>
</svg>