<?xml version="1.0" encoding="UTF-8"?>
<svg id="Capa_1" xmlns="http://www.w3.org/2000/svg" version="1.1" viewBox="0 0 54.7 60">
  <!-- Generator: Adobe Illustrator 29.1.0, SVG Export Plug-In . SVG Version: 2.1.0 Build 142)  -->
  <defs>
    <style>
      .st0 {
        fill: #343a40;
      }
    </style>
  </defs>
  <path class="st0" d="M25.3,5.8l-11.2-2.2c-.8-.2-1.6.2-2,.9-.2.3-4.2,7.3-5.9,16.3-.4,2.1-.6,4.1-.5,6.1,0,1.6.2,3.1.6,4.6.1.4.2.9.4,1.3.9,3,2.5,5.1,4.6,6.2l-2.2,11.7-4.5-.9c-1.7-.3-3.4.6-4,2.2-.1.3-.2.6-.2.8h0c0,.3,0,.5,0,.7,0,.9.2,1.7.7,2.4.5.7,1.3,1.2,2.2,1.4l12.7,2.5c.2,0,.4,0,.7,0,1.2,0,2.3-.6,3-1.6.2-.3.4-.7.5-1,.1-.5.2-.9.2-1.2,0-.8-.2-1.7-.7-2.3-.5-.7-1.3-1.2-2.2-1.4l-4.5-.9,2.2-11.7c2.2-.2,4.3-1.5,6.2-3.6.1-.2.3-.3.5-.6,1.5-1.8,2.7-4.2,3.6-6.8.5-1.3.8-2.7,1.1-4.1,1.7-8.9.7-17,.6-17.3-.1-.8-.7-1.5-1.5-1.6ZM21,28.8c-.2.4-.4.9-.6,1.3h0c-.6,1.2-1.3,2.3-2.1,3.3-1.1,1.4-2.3,2.3-3.4,2.6-.5.1-1.1.1-1.6,0-.9-.2-1.7-.9-2.3-2-.7-1.2-1.2-2.7-1.5-4.5,0-.2,0-.4,0-.6h11.5ZM22.4,24c0,.3-.1.7-.2,1h-12.8c0-1.1.2-2.3.4-3.5,1.2-6.2,3.6-11.5,4.9-13.9l8.4,1.6c.2,2.7.5,8.5-.7,14.7Z"/>
  <path class="st0" d="M21.1,20.2s0,0,.1,0c.6,0,1.1-.5,1.2-1.1.2-2.4.3-4.9.2-7.3,0-.6-.6-1.1-1.2-1.1-.6,0-1.1.6-1.1,1.2,0,2.4,0,4.7-.2,7,0,.6.4,1.2,1.1,1.3Z"/>
  <path class="st0" d="M54.7,53.2c0-.5-.2-1-.5-1.5-.2-.4-.5-.8-.9-1.1-.8-.7-1.9-.9-2.9-.7l-4.5.9-2.3-11.7c4.5-2.4,6.5-9.9,4.9-18.3-1.7-8.9-5.8-16-5.9-16.3-.4-.7-1.2-1.1-2-.9l-11.2,2.2c-.8.2-1.4.8-1.5,1.6,0,.3-1.1,8.3.6,17.3,1.6,8.4,6.4,14.6,11.4,15.1l2.3,11.7-4.5.9c-1.4.3-2.5,1.4-2.8,2.7-.2.7-.1,1.5.2,2.3.2.8.8,1.4,1.4,1.9.6.4,1.3.6,2,.6s.5,0,.7,0l12.7-2.5c.9-.2,1.7-.7,2.3-1.5.5-.8.7-1.8.6-2.7ZM41.3,35.9c-.3,0-.6.1-.9.1-.7,0-1.5-.4-2.3-1-.7-.5-1.3-1.1-1.9-1.9-.3-.4-.7-.9-1-1.4-.6-.9-1.1-2-1.6-3.1-.4-1-.8-2.1-1-3.2h12.7c0,2,0,3.8-.5,5.4-.1.6-.3,1.1-.5,1.6-.7,1.9-1.8,3.1-3,3.5ZM31.4,9.3l8.4-1.6c1.2,2.4,3.6,7.7,4.9,13.9,0,0,0,0,0,0h-13c-.7-5.3-.5-10-.3-12.2Z"/>
  <path class="st0" d="M27.1,6.1c.6,0,1.2-.5,1.2-1.2V1.2c0-.6-.5-1.2-1.2-1.2s-1.2.5-1.2,1.2v3.8c0,.6.5,1.2,1.2,1.2Z"/>
  <path class="st0" d="M22.4,4.4c.2.4.6.6,1,.6s.4,0,.6-.2c.5-.3.7-1,.4-1.6l-1.4-2.4c-.3-.5-1-.7-1.6-.4-.5.3-.7,1-.4,1.6l1.4,2.4Z"/>
  <path class="st0" d="M30.5,4.8c.2.1.4.2.6.2.4,0,.8-.2,1-.6l1.4-2.4c.3-.5.2-1.3-.4-1.6-.5-.3-1.3-.2-1.6.4l-1.4,2.4c-.3.5-.2,1.3.4,1.6Z"/>
  <path class="st0" d="M42.6,16.3c-.2-.6-.4-1.2-.6-1.8-.1-.3-.2-.6-.3-.9,0-.2-.2-.4-.4-.5-.4-.3-1-.3-1.4,0-.4.3-.6.9-.4,1.3.4,1.2.8,2.4,1.2,3.7.1.5.2,1,.7,1.3.4.2,1,.2,1.3,0,.4-.3.5-.8.4-1.2-.2-.6-.3-1.2-.5-1.8Z"/>
  <circle class="st0" cx="20.6" cy="23.6" r="1.2"/>
  <circle class="st0" cx="38.8" cy="9.8" r="1.2"/>
</svg>