<?xml version="1.0" encoding="UTF-8"?>
<svg id="Layer_1" xmlns="http://www.w3.org/2000/svg" version="1.1" viewBox="0 0 56.9 60">
  <!-- Generator: Adobe Illustrator 29.1.0, SVG Export Plug-In . SVG Version: 2.1.0 Build 142)  -->
  <defs>
    <style>
      .st0 {
        fill: #343a40;
      }
    </style>
  </defs>
  <g>
    <path class="st0" d="M36.7,19.5h0c-5.6-8.3-13.2-12.7-17.1-10-.4.3-.8.7-1.1,1.1,0,0-9.1,18.5-9.1,18.5l-5.1,3.5c-3.3,2.2-4.1,6.7-1.9,10,0,0,0,0,0,0l.2.3c2.2,3.3,6.7,4.1,10,1.9l8.2,12.1c1.2,1.5,3.5,3,6.4,1.2,1-.7,1.7-1.7,1.9-2.9.2-1.2,0-2.4-.7-3.4l-7.2-10.6s17-1.4,17.1-1.4c.5-.1,1-.3,1.5-.6,2-1.4,2.8-4.3,2.1-8.1-.6-3.6-2.4-7.6-5-11.4ZM11.4,43c-2.3,1.5-5.4,1-6.9-1.3,0,0,0,0,0,0l-.2-.3c-1.5-2.3-.9-5.4,1.3-6.9,0,0,0,0,0,0l4.4-3,5.8,8.6-4.4,3ZM26.5,53c.7,1.1.4,2.5-.6,3.3-1.1.7-2.5.4-3.3-.6l-8.2-12,3.3-2.2h.9c0,0,7.9,11.6,7.9,11.6ZM17.9,39.1l-6.3-9.3,6-12.3c.6,3.5,2.3,7.6,5,11.6,2.7,4,5.9,7.1,8.9,9l-13.7,1.1ZM36.6,37.6c-3-.2-8-3.6-12.2-9.8-4.2-6.2-5.6-12-4.6-14.9.3-1.1,1.4-1.9,2.5-1.9,3,0,8.2,3.5,12.5,9.8,2.4,3.6,4.2,7.3,4.7,10.6.9,6.3-2.9,6.3-2.9,6.3Z"/>
    <path class="st0" d="M24.5,60c-1.9,0-3.6-1.1-4.7-2.4h0c0,0-7.6-11.3-7.6-11.3-1.6.8-3.4,1-5.2.7-2.2-.4-4.1-1.6-5.3-3.5l-.2-.3c-1.2-1.8-1.7-4.1-1.3-6.2s1.7-4.1,3.5-5.3l4.8-3.3c2.9-5.9,8.1-16.3,8.9-18h0c0,0,.2-.4.2-.4.4-.5.8-1,1.4-1.4h0c1.3-.9,3-1.2,4.9-.8,4.4.8,9.7,5.1,13.8,11.1h0c2.7,4,4.5,8.2,5.2,11.9.8,4.3-.1,7.6-2.5,9.3-.6.4-1.2.7-1.9.8h0c-.2,0-.8,0-2.8.2-1.6.1-3.7.3-5.9.5-2.5.2-4.9.4-6.6.5l6.1,9c.8,1.2,1.2,2.8.9,4.3-.2,1.5-1.1,2.8-2.4,3.7h0c-1.1.7-2.2,1-3.2,1ZM16,43.9l7.5,11.1c.4.6,1.1.7,1.7.3.6-.4.7-1.1.3-1.7l-7.5-11.1-2,1.4ZM9.7,33l-3.5,2.4c-1.7,1.2-2.2,3.6-1,5.3l.2.3c1.2,1.8,3.6,2.2,5.3,1l3.5-2.4-4.5-6.7ZM38,38.6s0,0,0,0h0s0,0,0,0ZM12.8,29.7l5.6,8.2,9.9-.8c-2.4-1.9-4.7-4.5-6.7-7.4-2-2.9-3.5-6-4.5-8.9l-4.4,8.9ZM22.4,12.1c-.7,0-1.3.5-1.5,1.1h0c-.8,2.4.3,7.8,4.5,14,3,4.4,7.8,9,11.3,9.3.1,0,.7-.1,1.2-.7.7-.8.9-2.3.6-4.3-.4-2.9-2-6.4-4.5-10.1-2-2.9-4.2-5.3-6.5-7-1.9-1.5-3.8-2.3-5.1-2.3Z"/>
  </g>
  <g>
    <path class="st0" d="M28.8,19.7h0c-1.6-.3-3.2,0-4.5.9-.5.4-.6,1-.3,1.6.4.5,1,.6,1.6.3,1.7-1.2,4.1-.7,5.3,1s.7,4.1-1,5.3c-.5.3-.6,1-.3,1.5.2.3.6.5.9.5.2,0,.4,0,.6-.2,2.8-1.9,3.5-5.6,1.6-8.4-.9-1.3-2.3-2.2-3.9-2.5Z"/>
    <path class="st0" d="M30.4,32s0,0,0,0c-.7,0-1.4-.4-1.8-1-.3-.5-.5-1.1-.4-1.7.1-.6.4-1.1.9-1.4,1.2-.8,1.6-2.5.7-3.7-.4-.6-1-1-1.7-1.1-.7-.1-1.4,0-2,.4-1,.7-2.4.4-3.1-.6-.7-1-.5-2.4.6-3.1,1.5-1.1,3.5-1.5,5.3-1.1h.2c1.9.4,3.5,1.5,4.6,3,1.1,1.6,1.5,3.5,1.1,5.4-.4,1.9-1.4,3.5-3,4.6-.4.3-.8.4-1.2.4ZM30.4,29.7s0,0,0,0c0,0,0,0,0,0Z"/>
  </g>
  <g>
    <path class="st0" d="M38.1,11.7h.1c.6,0,1-.4,1.1-1l.9-8.4c0-.6-.3-1.2-1-1.3-.6,0-1.2.3-1.3,1,0,0,0,0,0,0l-.9,8.4c0,.6.4,1.2,1,1.2Z"/>
    <path class="st0" d="M38.2,12.9h-.2c-1.2-.1-2.1-1.2-2-2.5l.9-8.3s0,0,0-.1c0-.6.4-1.1.9-1.5.5-.4,1.1-.5,1.7-.4,1.2.2,2.1,1.3,1.9,2.5l-.9,8.3c-.1,1.1-1.1,2-2.2,2Z"/>
  </g>
  <g>
    <path class="st0" d="M52.5,10c-.3-.5-1-.7-1.5-.3l-7.8,5.1c-.5.3-.7,1-.3,1.5.2.3.6.5,1,.5.2,0,.4,0,.6-.2l7.8-5.1c.5-.4.6-1,.3-1.5Z"/>
    <path class="st0" d="M43.9,18s0,0,0,0c0,0,0,0,0,0-.8,0-1.5-.4-1.9-1-.7-1-.4-2.4.6-3.1l7.8-5.1c1-.7,2.4-.4,3.1.6.7,1,.4,2.4-.6,3.1h0s-7.8,5.1-7.8,5.1c-.4.2-.8.4-1.2.4Z"/>
  </g>
  <g>
    <path class="st0" d="M54.9,23.6h0s-9-1.6-9-1.6c-.6-.1-1.2.3-1.3.9-.1.6.3,1.2.9,1.3l9,1.6h.2c.6,0,1.1-.5,1.1-1.1,0-.6-.4-1.1-.9-1.1Z"/>
    <path class="st0" d="M54.7,27s0,0,0,0h-.3l-9.1-1.6c-1.2-.2-2-1.4-1.8-2.6.2-1.2,1.4-2,2.6-1.8l8.4,1.5h.6c1.1.3,1.9,1.2,1.9,2.4,0,.6-.3,1.2-.7,1.6-.4.4-1,.6-1.5.6Z"/>
  </g>
</svg>