<?xml version="1.0" encoding="UTF-8"?>
<svg id="Capa_1" xmlns="http://www.w3.org/2000/svg" version="1.1" viewBox="0 0 30.3 40">
  <!-- Generator: Adobe Illustrator 29.1.0, SVG Export Plug-In . SVG Version: 2.1.0 Build 142)  -->
  <defs>
    <style>
      .st0 {
        fill: #343a40;
      }
    </style>
  </defs>
  <path class="st0" d="M28.8,6.3c.8,0,1.5-.6,1.6-1.5,0-1,0-1.5,0-2.4h0C30.3,1,29.3,0,28,0H2.3C1.7,0,1.1.2.7.7c0,0,0,0,0,0C.2,1.1,0,1.7,0,2.3,0,5.8.1,9.3.4,12.7c.2,2.3.3,4,.6,6.4,0,.8.8,1.3,1.5,1.3,0,0,.1,0,.2,0,.8,0,1.4-.9,1.3-1.7-.2-1.9-.4-3.4-.5-5.1,1.5-.5,3.2-.8,4.8-.7,2,0,3.9.6,5.7,1.6.1,0,.3.1.4.2,2.3,1.2,4.8,1.8,7.4,1.8s3.4-.3,5-.8c-.4,4.2-1,8.3-1.9,13.1l-1,5.5c-.1,0-.3,0-.4,0h-11.9c-.4,0-.7.3-.7.7s.3.7.7.7h11.9s0,0,.1,0l-.2,1H7l-.2-1s0,0,.1,0h2c.4,0,.7-.3.7-.7s-.3-.7-.7-.7h-2c-.1,0-.3,0-.4,0l-1-5.5c-.4-2.3-.6-3.6-1-5.8-.1-.8-.9-1.4-1.7-1.3-.8.1-1.4.9-1.3,1.7.3,2.3.6,3.7,1,6l1.5,8.1c.3,1.4,1.5,2.5,3,2.5h16.4c1.5,0,2.7-1,3-2.5l1.5-8.1c1.4-7.4,2.1-13.5,2.3-20.2,0-.8-.6-1.5-1.5-1.6-.8,0-1.5.6-1.6,1.5,0,1.1,0,2.2-.2,3.3-1.7.7-3.5,1.1-5.3,1.1s-4.1-.5-6-1.4c-.1,0-.2-.1-.3-.2-2.1-1.2-4.6-1.9-7-2-1.7,0-3.5.1-5.1.6-.1-2.5-.2-5-.2-7.4h24.2c0,.6,0,1,0,1.7,0,.8.6,1.5,1.5,1.6Z"/>
  <path class="st0" d="M10.3,30.5c0,1.7,1.4,3.1,3.1,3.1s3.1-1.4,3.1-3.1-1.4-3.1-3.1-3.1-3.1,1.4-3.1,3.1ZM13.4,29.8c.4,0,.7.3.7.7s-.3.7-.7.7-.7-.3-.7-.7.3-.7.7-.7Z"/>
  <path class="st0" d="M22.5,24.4c0-1.3-1.1-2.3-2.3-2.3s-2.3,1.1-2.3,2.3,1.1,2.3,2.3,2.3,2.3-1.1,2.3-2.3ZM19.6,24.4c0-.3.3-.6.6-.6s.6.3.6.6-.3.6-.6.6-.6-.3-.6-.6Z"/>
  <path class="st0" d="M15.2,20.7c0-1-.9-1.9-1.9-1.9s-1.9.9-1.9,1.9.9,1.9,1.9,1.9,1.9-.9,1.9-1.9ZM12.9,20.7c0-.2.2-.3.3-.3s.3.2.3.3-.2.3-.3.3-.3-.2-.3-.3Z"/>
  <path class="st0" d="M10,16.1c0-1-.9-1.9-1.9-1.9s-1.9.9-1.9,1.9.9,1.9,1.9,1.9,1.9-.9,1.9-1.9ZM7.8,16.1c0-.2.2-.3.3-.3s.3.2.3.3-.2.3-.3.3-.3-.2-.3-.3Z"/>
</svg>